<svg width="84" height="20" viewBox="0 0 84 20" fill="none" xmlns="http://www.w3.org/2000/svg">
<path d="M1.136 14.456C0.976 14.456 0.890667 14.4293 0.88 14.376C0.869333 14.3227 0.864 14.232 0.864 14.104V8.104C0.864 8.072 0.864 8.01333 0.864 7.928C0.874667 7.84267 0.938667 7.8 1.056 7.8H2.544C3.216 7.8 3.77067 7.912 4.208 8.136C4.64533 8.34933 4.96533 8.69067 5.168 9.16C5.38133 9.61867 5.488 10.2213 5.488 10.968C5.488 11.6293 5.408 12.184 5.248 12.632C5.09867 13.0693 4.88533 13.4213 4.608 13.688C4.34133 13.9547 4.032 14.152 3.68 14.28C3.328 14.3973 2.95467 14.456 2.56 14.456H1.136ZM0.688 19V8.056C0.688 7.97067 0.704 7.90667 0.736 7.864C0.778667 7.82133 0.853333 7.8 0.96 7.8H1.728C1.856 7.8 1.93067 7.84267 1.952 7.928C1.97333 8.01333 1.984 8.056 1.984 8.056V18.744C1.984 18.8293 1.96267 18.888 1.92 18.92C1.888 18.952 1.78133 18.9733 1.6 18.984C1.42933 18.9947 1.12533 19 0.688 19ZM1.952 13.256H2.688C2.98667 13.256 3.232 13.176 3.424 13.016C3.62667 12.856 3.78133 12.6 3.888 12.248C3.99467 11.8853 4.048 11.4053 4.048 10.808C4.048 10.4347 4.01067 10.1093 3.936 9.832C3.86133 9.544 3.728 9.32533 3.536 9.176C3.35467 9.016 3.104 8.936 2.784 8.936H1.952V13.256ZM7.25363 19V8.392C7.25363 8.18933 7.27496 8.05067 7.31763 7.976C7.36029 7.89067 7.47229 7.84267 7.65363 7.832C7.84563 7.81067 8.15496 7.8 8.58163 7.8V18.744C8.58163 18.8293 8.56029 18.888 8.51763 18.92C8.47496 18.952 8.36296 18.9733 8.18163 18.984C8.01096 18.9947 7.70163 19 7.25363 19ZM14.9308 19.26C14.3414 19.26 13.8128 19.182 13.3448 19.026C12.8768 18.8873 12.4694 18.636 12.1228 18.272C11.7761 17.908 11.4901 17.3967 11.2648 16.738C11.0394 16.0793 10.8661 15.2387 10.7448 14.216C10.6408 13.1933 10.5888 11.954 10.5888 10.498C10.5888 8.79933 10.6928 7.36067 10.9008 6.182C11.1088 5.00333 11.3861 4.05 11.7328 3.322C12.0968 2.57667 12.5041 2.00467 12.9548 1.606C13.4054 1.19 13.8734 0.912666 14.3588 0.773999C14.8441 0.617999 15.3208 0.539999 15.7888 0.539999C16.5341 0.539999 17.0801 0.617999 17.4268 0.773999C17.7734 0.912666 17.9988 1.10333 18.1028 1.346C18.2068 1.57133 18.2588 1.814 18.2588 2.074C18.2588 2.42067 18.2154 2.75 18.1288 3.062C18.0421 3.35667 17.9468 3.61667 17.8428 3.842C17.7388 3.75533 17.6174 3.686 17.4788 3.634C17.3401 3.56467 17.1841 3.51267 17.0108 3.478C16.8548 3.426 16.6814 3.4 16.4908 3.4C16.1961 3.4 15.9101 3.46067 15.6328 3.582C15.3554 3.686 15.0954 3.88533 14.8528 4.18C14.6101 4.47467 14.4021 4.882 14.2288 5.402C14.0554 5.922 13.9168 6.58067 13.8128 7.378C13.7088 8.17533 13.6568 9.13733 13.6568 10.264C13.6568 11.3907 13.6914 12.3267 13.7608 13.072C13.8474 13.8173 13.9688 14.4067 14.1248 14.84C14.2808 15.256 14.4888 15.5593 14.7488 15.75C15.0088 15.9233 15.3208 16.01 15.6848 16.01C16.0834 16.01 16.4561 15.9753 16.8028 15.906C17.1668 15.8367 17.4701 15.7413 17.7128 15.62C17.8168 15.8453 17.9034 16.114 17.9728 16.426C18.0594 16.7207 18.1028 17.024 18.1028 17.336C18.1028 17.7347 17.9728 18.0813 17.7128 18.376C17.4701 18.6707 17.1061 18.8873 16.6208 19.026C16.1528 19.182 15.5894 19.26 14.9308 19.26ZM24.8715 19.26C24.0222 19.26 23.2942 19.13 22.6875 18.87C22.0982 18.5927 21.6215 18.1073 21.2575 17.414C20.8935 16.7207 20.6248 15.7587 20.4515 14.528C20.2782 13.2973 20.1915 11.72 20.1915 9.796C20.1915 7.43867 20.3735 5.59267 20.7375 4.258C21.1015 2.906 21.6475 1.95267 22.3755 1.398C23.1208 0.825999 24.0482 0.539999 25.1575 0.539999C26.0068 0.539999 26.7262 0.687333 27.3155 0.982C27.9048 1.25933 28.3815 1.74467 28.7455 2.438C29.1095 3.114 29.3695 4.04133 29.5255 5.22C29.6988 6.39867 29.7855 7.88933 29.7855 9.692C29.7855 12.136 29.6122 14.0513 29.2655 15.438C28.9188 16.8247 28.3815 17.8127 27.6535 18.402C26.9428 18.974 26.0155 19.26 24.8715 19.26ZM25.0275 16.244C25.4608 16.244 25.7815 16.0273 25.9895 15.594C26.2148 15.1607 26.3708 14.4673 26.4575 13.514C26.5442 12.5607 26.5875 11.3213 26.5875 9.796C26.5875 8.288 26.5528 7.07467 26.4835 6.156C26.4315 5.23733 26.3015 4.57867 26.0935 4.18C25.8855 3.764 25.5562 3.556 25.1055 3.556C24.6895 3.556 24.3688 3.78133 24.1435 4.232C23.9182 4.66533 23.7535 5.38467 23.6495 6.39C23.5628 7.39533 23.5195 8.74733 23.5195 10.446C23.5195 11.798 23.5542 12.8987 23.6235 13.748C23.6928 14.5973 23.8315 15.23 24.0395 15.646C24.2648 16.0447 24.5942 16.244 25.0275 16.244ZM37.0182 14.658L35.7962 11.018C35.7268 10.81 35.6315 10.498 35.5102 10.082C35.4062 9.64867 35.2848 9.16333 35.1462 8.626C35.0075 8.08867 34.8688 7.55133 34.7302 7.014C34.5915 6.45933 34.4615 5.948 34.3402 5.48C34.2362 5.012 34.1495 4.63933 34.0802 4.362C34.0108 4.06733 33.9762 3.92 33.9762 3.92L35.1202 0.799999L37.1742 7.196C37.3128 7.59467 37.4255 7.95867 37.5122 8.288C37.5988 8.61733 37.6682 8.89467 37.7202 9.12C37.7722 9.34533 37.8068 9.51867 37.8242 9.64C37.8588 9.76133 37.8762 9.822 37.8762 9.822C37.8762 9.822 37.8848 9.76133 37.9022 9.64C37.9195 9.51867 37.9542 9.34533 38.0062 9.12C38.0582 8.87733 38.1188 8.6 38.1882 8.288C38.2748 7.976 38.3788 7.62933 38.5002 7.248L40.2682 1.32L41.6202 3.972C41.6202 3.972 41.5855 4.11067 41.5162 4.388C41.4468 4.66533 41.3515 5.038 41.2302 5.506C41.1262 5.95667 41.0048 6.45933 40.8662 7.014C40.7275 7.55133 40.5802 8.08867 40.4242 8.626C40.2855 9.146 40.1555 9.62267 40.0342 10.056C39.9302 10.472 39.8348 10.7927 39.7482 11.018L38.5002 14.476C38.4655 14.5973 38.3702 14.658 38.2142 14.658H37.0182ZM32.3902 19V1.32C32.3902 1.06 32.4422 0.912666 32.5462 0.877999C32.6502 0.825999 32.7715 0.799999 32.9102 0.799999H35.1202L35.2762 5.74L34.4442 6.286C34.4442 6.286 34.4615 6.38133 34.4962 6.572C34.5308 6.74533 34.5742 7.00533 34.6262 7.352C34.6782 7.68133 34.7302 8.08867 34.7822 8.574C34.8515 9.042 34.9122 9.562 34.9642 10.134C35.0335 10.706 35.0855 11.3213 35.1202 11.98C35.1722 12.6387 35.1982 13.3233 35.1982 14.034L35.2762 18.48C35.2762 18.6533 35.2242 18.7747 35.1202 18.844C35.0162 18.9133 34.7562 18.9567 34.3402 18.974C33.9415 18.9913 33.2915 19 32.3902 19ZM40.2422 19L40.3722 14.06C40.3895 13.3493 40.4155 12.6733 40.4502 12.032C40.5022 11.3733 40.5542 10.758 40.6062 10.186C40.6755 9.59667 40.7362 9.068 40.7882 8.6C40.8402 8.11467 40.8922 7.70733 40.9442 7.378C40.9962 7.03133 41.0395 6.76267 41.0742 6.572C41.1088 6.38133 41.1262 6.286 41.1262 6.286L40.2682 5.688V1.32C40.3375 1.12933 40.3982 0.999332 40.4502 0.929999C40.5195 0.843332 40.6322 0.799999 40.7882 0.799999C41.6028 0.799999 42.1748 0.799999 42.5042 0.799999C42.8508 0.799999 43.0588 0.799999 43.1282 0.799999C43.1975 0.799999 43.2322 0.799999 43.2322 0.799999V18.48C43.2322 18.6533 43.1888 18.7747 43.1022 18.844C43.0155 18.9133 42.7642 18.9567 42.3482 18.974C41.9495 18.9913 41.2475 19 40.2422 19ZM45.8269 19V1.32C45.8269 1.32 45.8529 1.23333 45.9049 1.06C45.9569 0.886665 46.1042 0.799999 46.3469 0.799999H52.5869C52.5869 1.58 52.5782 2.152 52.5609 2.516C52.5435 2.88 52.5002 3.12267 52.4309 3.244C52.3615 3.348 52.2402 3.4 52.0669 3.4H48.7389V16.4H52.4049C52.4049 17.2147 52.3962 17.804 52.3789 18.168C52.3615 18.532 52.3182 18.766 52.2489 18.87C52.1795 18.9567 52.0582 19 51.8849 19H45.8269ZM46.0349 10.472V7.82H51.8849C51.8849 8.912 51.8589 9.63133 51.8069 9.978C51.7722 10.3073 51.6335 10.472 51.3909 10.472H46.0349Z" fill="#F61B77"/>
<path d="M59.3418 19.26C58.4925 19.26 57.7645 19.13 57.1578 18.87C56.5685 18.5927 56.0918 18.1073 55.7278 17.414C55.3638 16.7207 55.0951 15.7587 54.9218 14.528C54.7485 13.2973 54.6618 11.72 54.6618 9.796C54.6618 7.43867 54.8438 5.59267 55.2078 4.258C55.5718 2.906 56.1178 1.95267 56.8458 1.398C57.5911 0.825999 58.5185 0.539999 59.6278 0.539999C60.4771 0.539999 61.1965 0.687333 61.7858 0.982C62.3751 1.25933 62.8518 1.74467 63.2158 2.438C63.5798 3.114 63.8398 4.04133 63.9958 5.22C64.1691 6.39867 64.2558 7.88933 64.2558 9.692C64.2558 12.136 64.0825 14.0513 63.7358 15.438C63.3891 16.8247 62.8518 17.8127 62.1238 18.402C61.4131 18.974 60.4858 19.26 59.3418 19.26ZM59.4978 16.244C59.9311 16.244 60.2518 16.0273 60.4598 15.594C60.6851 15.1607 60.8411 14.4673 60.9278 13.514C61.0145 12.5607 61.0578 11.3213 61.0578 9.796C61.0578 8.288 61.0231 7.07467 60.9538 6.156C60.9018 5.23733 60.7718 4.57867 60.5638 4.18C60.3558 3.764 60.0265 3.556 59.5758 3.556C59.1598 3.556 58.8391 3.78133 58.6138 4.232C58.3885 4.66533 58.2238 5.38467 58.1198 6.39C58.0331 7.39533 57.9898 8.74733 57.9898 10.446C57.9898 11.798 58.0245 12.8987 58.0938 13.748C58.1631 14.5973 58.3018 15.23 58.5098 15.646C58.7351 16.0447 59.0645 16.244 59.4978 16.244ZM73.6985 19L70.9425 12.032C70.7865 11.616 70.6218 11.1393 70.4485 10.602C70.2925 10.0647 70.1365 9.50133 69.9805 8.912C69.8418 8.32267 69.7118 7.75067 69.5905 7.196C69.4691 6.64133 69.3565 6.13867 69.2525 5.688C69.1658 5.23733 69.0965 4.882 69.0445 4.622C68.9925 4.34467 68.9665 4.206 68.9665 4.206L67.2505 2.49L67.3805 0.799999H69.6945L72.3985 7.638C72.5718 8.08867 72.7451 8.6 72.9185 9.172C73.0918 9.72667 73.2478 10.2987 73.3865 10.888C73.5425 11.46 73.6811 12.0147 73.8025 12.552C73.9238 13.0893 74.0278 13.5747 74.1145 14.008C74.2011 14.4413 74.2705 14.788 74.3225 15.048C74.3745 15.2907 74.4005 15.412 74.4005 15.412L76.1685 17.31L75.9605 19H73.6985ZM66.8605 19V1.32C66.8605 0.973332 67.0338 0.799999 67.3805 0.799999L69.7725 1.32L69.3305 5.714C69.3825 6.078 69.4258 6.45067 69.4605 6.832C69.4951 7.21333 69.5298 7.60333 69.5645 8.002C69.5991 8.38333 69.6251 8.76467 69.6425 9.146C69.6771 9.51 69.7031 9.874 69.7205 10.238C69.7378 10.602 69.7465 10.9573 69.7465 11.304C69.7638 11.6333 69.7725 11.9453 69.7725 12.24V18.48C69.7725 18.6533 69.7291 18.7747 69.6425 18.844C69.5558 18.9133 69.3131 18.9567 68.9145 18.974C68.5158 18.9913 67.8311 19 66.8605 19ZM75.9605 19L73.5685 18.48L73.9585 13.488C73.9065 13.0893 73.8631 12.708 73.8285 12.344C73.7938 11.9627 73.7591 11.5987 73.7245 11.252C73.7071 10.9053 73.6811 10.5673 73.6465 10.238C73.6291 9.90867 73.6118 9.588 73.5945 9.276C73.5945 8.94667 73.5858 8.626 73.5685 8.314C73.5685 8.002 73.5685 7.69 73.5685 7.378V1.32C73.5685 1.14667 73.6118 1.02533 73.6985 0.956C73.7851 0.886666 74.0278 0.843333 74.4265 0.825998C74.8425 0.808665 75.5271 0.799999 76.4805 0.799999V18.48C76.4805 18.8267 76.3071 19 75.9605 19ZM79.7743 12.734L79.2283 1.502C79.2283 1.22467 79.315 1.034 79.4883 0.929999C79.679 0.808666 80.069 0.730666 80.6583 0.695999C81.2477 0.661332 82.1403 0.643999 83.3363 0.643999L82.6863 11.382C82.669 11.8153 82.5737 12.1273 82.4003 12.318C82.227 12.5087 81.9323 12.63 81.5163 12.682C81.1177 12.7167 80.537 12.734 79.7743 12.734ZM81.1783 19.208C80.4677 19.208 79.9823 19.052 79.7223 18.74C79.4623 18.4107 79.3323 17.9513 79.3323 17.362C79.3323 16.8593 79.4883 16.4173 79.8003 16.036C80.1297 15.6547 80.589 15.464 81.1783 15.464C81.889 15.464 82.3743 15.6373 82.6343 15.984C82.8943 16.3307 83.0243 16.79 83.0243 17.362C83.0243 17.8647 82.8597 18.298 82.5303 18.662C82.2183 19.026 81.7677 19.208 81.1783 19.208Z" fill="#1E1D1D"/>
</svg>
